<svg xmlns:svg="http://www.w3.org/2000/svg" xmlns="http://www.w3.org/2000/svg" viewBox="0 0 295 120" height="120" width="295" xml:space="preserve" version="1.1"><defs><linearGradient id="gradiant1" spreadMethod="pad" gradientTransform="matrix(0,97.396584,-97.396584,0,52.004814,11.389526)" gradientUnits="userSpaceOnUse" y2="0" x2="1" y1="0" x1="0"><stop offset="0" style="stop-color:#ff1b2d;stop-opacity:1"/><stop offset="0.3" style="stop-color:#ff1b2d;stop-opacity:1"/><stop offset="0.61" style="stop-color:#ff1b2d;stop-opacity:1"/><stop offset="1" style="stop-color:#a70014;stop-opacity:1"/></linearGradient><linearGradient id="gradiant2" spreadMethod="pad" gradientTransform="matrix(0,86.142511,-86.142511,0,77.23835,17.13012)" gradientUnits="userSpaceOnUse" y2="0" x2="1" y1="0" x1="0"><stop offset="0" style="stop-color:#9c0000;stop-opacity:1"/><stop offset="0.7" style="stop-color:#ff4b4b;stop-opacity:1"/><stop offset="1" style="stop-color:#ff4b4b;stop-opacity:1"/></linearGradient></defs><path d="M60.38 9.75C32.63 9.75 10.14 32.25 10.14 60l0 0c0 26.95 21.22 48.94 47.86 50.19l0 0c0.8 0.04 1.59 0.06 2.39 0.06l0 0c12.87 0 24.6-4.84 33.49-12.79l0 0c-5.89 3.91-12.78 6.15-20.14 6.15l0 0c-11.97 0-22.68-5.94-29.89-15.3l0 0C38.29 81.76 34.69 72.06 34.45 61.18l0 0c0-0.03 0-2.34 0-2.37l0 0C34.69 47.94 38.29 38.24 43.84 31.68l0 0C51.05 22.32 61.77 16.39 73.74 16.39l0 0c7.36 0 14.25 2.25 20.14 6.16l0 0C85.03 14.63 73.37 9.8 60.57 9.75l0 0c-0.06 0-0.13 0-0.19 0z" fill="url(#gradiant1)"/><path d="M43.84 31.68C48.46 26.24 54.41 22.96 60.92 22.96l0 0c14.63 0 26.49 16.59 26.49 37.04l0 0c0 20.46-11.86 37.04-26.49 37.04l0 0c-6.51 0-12.46-3.28-17.07-8.72l0 0c7.21 9.36 17.92 15.3 29.89 15.3l0 0c7.36 0 14.25-2.25 20.14-6.15l0 0C104.16 88.26 110.63 74.89 110.63 60l0 0c0-14.88-6.47-28.26-16.76-37.46l0 0C87.98 18.63 81.1 16.39 73.74 16.39l0 0c-11.97 0-22.68 5.94-29.89 15.3" fill="url(#gradiant2)"/><path d="m148.99 40.16c-11.84 0-21.47 10.1-21.47 22.51 0 12.41 9.63 22.51 21.47 22.51 11.84 0 21.47-10.1 21.47-22.51 0-12.41-9.63-22.51-21.47-22.51zm0 3.38c9.98 0 18.09 8.58 18.09 19.13 0 10.55-8.11 19.13-18.09 19.13-9.97 0-18.09-8.58-18.09-19.13 0-10.55 8.11-19.13 18.09-19.13zm39.46 8.51c-4.45 0-8.28 2.1-10.88 5.42l0-4.68-3.54 0 0 40.72 3.54 0 0-14.6c2.6 3.32 6.43 5.42 10.88 5.42 8.27 0 14.99-7.24 14.99-16.14 0-8.9-6.73-16.14-14.99-16.14zm81.99 0c-8.27 0-14.99 7.24-14.99 16.14 0 8.9 6.73 16.14 14.99 16.14 4.45 0 8.28-2.1 10.88-5.42l0 4.58 3.54 0 0-30.7-3.54 0 0 4.68c-2.59-3.32-6.43-5.42-10.88-5.42zm-48.83 0.05c-8.27 0-14.99 7.24-14.99 16.14 0 8.9 6.73 16.13 14.99 16.13 5.91 0 11.04-3.7 13.48-9.07l-3.05-1.78c-1.82 4.33-5.81 7.34-10.42 7.34-5.99 0-10.92-5.06-11.44-11.5l24.27 0 2.13 0c0.03-0.37 0.04-0.75 0.04-1.13 0-9.5-6.17-16.14-14.99-16.14zm31.4 0.08c-1.22 0.05-2.37 0.37-3.45 0.95-2.27 1.21-3.84 3.05-4.84 5.4-0.02 0.06-0.05 0.11-0.07 0.16-0.01 0-0.02 0-0.04 0l0-5.64 0 0 0-0.06-3.54 0 0 0.06 0 30.45 3.54 0 0 0 0-0.21c0-5.49 0-10.32 0-15.8 0-2.25 0.35-4.08 1.09-5.86 0.68-1.65 1.64-3.12 3-4.29 1.61-1.38 3.45-1.97 5.56-1.63 0.34 0.06 0.68 0.13 1.04 0.2 0.2-1.01 0.68-2.3 0.89-3.32-0.98-0.28-2.27-0.44-3.19-0.4zm-64.57 3.38c6.34 0 11.49 5.67 11.49 12.63 0 6.97-5.16 12.63-11.49 12.63-6.34 0-11.49-5.67-11.49-12.63 0-6.97 5.16-12.63 11.49-12.63zm81.99 0c6.34 0 11.49 5.67 11.49 12.63 0 6.97-5.16 12.63-11.49 12.63-6.34 0-11.49-5.67-11.49-12.63 0-6.97 5.16-12.63 11.49-12.63zm-48.83 0.05c6.26 0 10.64 4.22 11.37 10.68l-22.71 0c0.86-6.04 5.61-10.68 11.34-10.68z" style="fill-rule:nonzero;fill:#000"/></svg>